# xmcd CD database file
#
# Track frame offsets:
#	182
#	8232
#	16437
#	24497
#	31617
#	51322
#	57045
#	66185
#	78400
#	90957
#	99620
#	106695
#	116022
#	126802
#	134967
#	144287
#	152887
#	160435
#	169090
#	178425
#	186835
#	196632
#	203235
#	211837
#	220602
#	229110
#	238550
#	251015
#	258420
#	269455
#	281030
#
# Disc length: 3933 seconds
#
# Revision: 2
# Processed by: cddbd v1.5.2PL0 Copyright (c) Steve Scherf et al.
# Submitted via: CDex 1.70beta2
#
DISCID=b70f5b1f
DTITLE=Collins Kids - Rockin' on TV (live)
DYEAR=1900
DGENRE=Rockabilly
TTITLE0=Kokomo
TTITLE1=You Are My Sunshine
TTITLE2=Chantilly Lace
TTITLE3=Catfish Boogie
TTITLE4=Lonesome Road
TTITLE5=Peter Gunn
TTITLE6=Bill Bailey
TTITLE7=Way Down Yonder in New Orleans
TTITLE8=Swing Low Sweet Chariot
TTITLE9=I Was Looking Back to See
TTITLE10=Oh Boy!
TTITLE11=Let the Good Times Roll
TTITLE12=Peggy Sue
TTITLE13=That'll Be the Day
TTITLE14=Waiting Just for You
TTITLE15=Fiesty
TTITLE16=Hoy Hoy
TTITLE17=Since I Met You Baby
TTITLE18=Under the Double Eagle
TTITLE19=Wildcat
TTITLE20=You Can't Have My Love
TTITLE21=Hot Rod
TTITLE22=Corrine Corrina
TTITLE23=Just Because
TTITLE24=Hurricane
TTITLE25=Love Me to Pieces
TTITLE26=Walking the Floor over You
TTITLE27=Dance to the Bop
TTITLE28=My Kinda Love
TTITLE29=By the Light of the Silvery Moon
TTITLE30=Hound Dog
EXTD=
EXTT0=
EXTT1=
EXTT2=
EXTT3=
EXTT4=
EXTT5=
EXTT6=
EXTT7=
EXTT8=
EXTT9=
EXTT10=
EXTT11=
EXTT12=
EXTT13=
EXTT14=
EXTT15=
EXTT16=
EXTT17=
EXTT18=
EXTT19=
EXTT20=
EXTT21=
EXTT22=
EXTT23=
EXTT24=
EXTT25=
EXTT26=
EXTT27=
EXTT28=
EXTT29=
EXTT30=
PLAYORDER=
